<svg xmlns="http://www.w3.org/2000/svg" xmlns:xlink="http://www.w3.org/1999/xlink" version="1.1" width="1000" height="600" viewBox="0 0 1000 1000" xml:space="preserve">
<desc>Created with Fabric.js 3.5.0</desc>
<defs>
</defs>
<g transform="matrix(0 11.0516 -19.3934 0 499.9995 499.9993)" id="688798">
<path style="stroke: rgb(55,17,17); stroke-width: 1; stroke-dasharray: none; stroke-linecap: butt; stroke-dashoffset: 0; stroke-linejoin: miter; stroke-miterlimit: 4; is-custom-font: none; font-file-url: none; fill: rgb(19,15,245); fill-rule: nonzero; opacity: 1;" vector-effect="non-scaling-stroke" transform=" translate(-23.4385, -23.4378)" d="M 26.602 24.568 l 15.401 6.072 l -0.389 -4.902 c -10.271 -7.182 -9.066 -6.481 -14.984 -10.615 V 2.681 c 0 -1.809 -1.604 -2.701 -3.191 -2.681 c -1.587 -0.021 -3.19 0.872 -3.19 2.681 v 12.44 c -5.918 4.134 -4.714 3.434 -14.985 10.615 l -0.39 4.903 l 15.401 -6.072 c 0 0 -0.042 15.343 -0.006 15.581 l -5.511 3.771 v 2.957 l 7.044 -2.427 h 3.271 l 7.046 2.427 V 43.92 l -5.513 -3.771 C 26.644 39.909 26.602 24.568 26.602 24.568 z" stroke-linecap="round"/>
</g>
<g transform="matrix(1 0 0 1 462.1212 782.5479)" style="" id="462296">
		
<path xml:space="preserve" font-family="Lato" font-size="100" font-style="italic" font-weight="bold" style="stroke: none; stroke-width: 1; stroke-dasharray: none; stroke-linecap: butt; stroke-dashoffset: 0; stroke-linejoin: miter; stroke-miterlimit: 4; is-custom-font: none; font-file-url: none; fill: rgb(0,0,0); fill-rule: nonzero; opacity: 1; white-space: pre;" d="M-262.65-40.89L-217.05-40.89L-217.05-30.19L-249.10-30.19L-249.10-10.14L-223.85-10.14L-223.85 0.21L-249.10 0.21L-249.10 20.66L-217.05 20.66L-217.05 31.41L-262.65 31.41L-262.65-40.89Z"/><path xml:space="preserve" font-family="Lato" font-size="100" font-style="italic" font-weight="bold" style="stroke: none; stroke-width: 1; stroke-dasharray: none; stroke-linecap: butt; stroke-dashoffset: 0; stroke-linejoin: miter; stroke-miterlimit: 4; is-custom-font: none; font-file-url: none; fill: rgb(0,0,0); fill-rule: nonzero; opacity: 1; white-space: pre;" d="M-162.05 31.41L-144.50 4.96L-161.35-19.89L-149.45-19.89Q-148.10-19.89-147.45-19.51Q-146.80-19.14-146.30-18.29L-146.30-18.29L-135.55-1.14Q-135.30-1.99-134.93-2.84Q-134.55-3.69-134-4.54L-134-4.54L-125.35-18.04Q-124.75-18.99-124.10-19.44Q-123.45-19.89-122.50-19.89L-122.50-19.89L-111.15-19.89L-128.05 4.41L-110.45 31.41L-122.35 31.41Q-123.70 31.41-124.53 30.71Q-125.35 30.01-125.90 29.11L-125.90 29.11L-136.80 11.26Q-137.25 13.06-138.05 14.26L-138.05 14.26L-147.65 29.11Q-148.20 29.96-149 30.69Q-149.80 31.41-151 31.41L-151 31.41L-162.05 31.41Z"/><path xml:space="preserve" font-family="Lato" font-size="100" font-style="italic" font-weight="bold" style="stroke: none; stroke-width: 1; stroke-dasharray: none; stroke-linecap: butt; stroke-dashoffset: 0; stroke-linejoin: miter; stroke-miterlimit: 4; is-custom-font: none; font-file-url: none; fill: rgb(0,0,0); fill-rule: nonzero; opacity: 1; white-space: pre;" d="M-45.30 48.16L-57.65 48.16L-57.65-19.89L-50.10-19.89Q-48.90-19.89-48.05-19.34Q-47.20-18.79-46.95-17.64L-46.95-17.64L-45.95-12.89Q-42.85-16.44-38.83-18.64Q-34.80-20.84-29.40-20.84L-29.40-20.84Q-25.20-20.84-21.72-19.09Q-18.25-17.34-15.72-14.01Q-13.20-10.69-11.82-5.81Q-10.45-0.94-10.45 5.36L-10.45 5.36Q-10.45 11.11-12 16.01Q-13.55 20.91-16.42 24.51Q-19.30 28.11-23.38 30.14Q-27.45 32.16-32.50 32.16L-32.50 32.16Q-36.85 32.16-39.88 30.84Q-42.90 29.51-45.30 27.16L-45.30 27.16L-45.30 48.16ZM-33.65-11.09L-33.65-11.09Q-37.50-11.09-40.22-9.46Q-42.95-7.84-45.30-4.89L-45.30-4.89L-45.30 18.11Q-43.20 20.71-40.72 21.74Q-38.25 22.76-35.40 22.76L-35.40 22.76Q-32.60 22.76-30.32 21.71Q-28.05 20.66-26.48 18.51Q-24.90 16.36-24.05 13.09Q-23.20 9.81-23.20 5.36L-23.20 5.36Q-23.20 0.86-23.92-2.26Q-24.65-5.39-26-7.34Q-27.35-9.29-29.27-10.19Q-31.20-11.09-33.65-11.09Z"/><path xml:space="preserve" font-family="Lato" font-size="100" font-style="italic" font-weight="bold" style="stroke: none; stroke-width: 1; stroke-dasharray: none; stroke-linecap: butt; stroke-dashoffset: 0; stroke-linejoin: miter; stroke-miterlimit: 4; is-custom-font: none; font-file-url: none; fill: rgb(0,0,0); fill-rule: nonzero; opacity: 1; white-space: pre;" d="M68.05-20.69L68.05-20.69Q73.80-20.69 78.47-18.84Q83.15-16.99 86.45-13.59Q89.75-10.19 91.55-5.29Q93.35-0.39 93.35 5.66L93.35 5.66Q93.35 11.76 91.55 16.66Q89.75 21.56 86.45 25.01Q83.15 28.46 78.47 30.31Q73.80 32.16 68.05 32.16L68.05 32.16Q62.30 32.16 57.60 30.31Q52.90 28.46 49.57 25.01Q46.25 21.56 44.42 16.66Q42.60 11.76 42.60 5.66L42.60 5.66Q42.60-0.39 44.42-5.29Q46.25-10.19 49.57-13.59Q52.90-16.99 57.60-18.84Q62.30-20.69 68.05-20.69ZM68.05 22.66L68.05 22.66Q74.45 22.66 77.53 18.36Q80.60 14.06 80.60 5.76L80.60 5.76Q80.60-2.54 77.53-6.89Q74.45-11.24 68.05-11.24L68.05-11.24Q61.55-11.24 58.45-6.86Q55.35-2.49 55.35 5.76L55.35 5.76Q55.35 14.01 58.45 18.34Q61.55 22.66 68.05 22.66Z"/><path xml:space="preserve" font-family="Lato" font-size="100" font-style="italic" font-weight="bold" style="stroke: none; stroke-width: 1; stroke-dasharray: none; stroke-linecap: butt; stroke-dashoffset: 0; stroke-linejoin: miter; stroke-miterlimit: 4; is-custom-font: none; font-file-url: none; fill: rgb(0,0,0); fill-rule: nonzero; opacity: 1; white-space: pre;" d="M162.70 31.41L150.35 31.41L150.35-19.89L157.60-19.89Q159.50-19.89 160.25-19.19Q161-18.49 161.25-16.79L161.25-16.79L162-10.59Q164.75-15.34 168.45-18.09Q172.15-20.84 176.75-20.84L176.75-20.84Q180.55-20.84 183.05-19.09L183.05-19.09L181.45-9.84Q181.30-8.94 180.80-8.56Q180.30-8.19 179.45-8.19L179.45-8.19Q178.70-8.19 177.40-8.54Q176.10-8.89 173.95-8.89L173.95-8.89Q170.10-8.89 167.35-6.76Q164.60-4.64 162.70-0.54L162.70-0.54L162.70 31.41Z"/><path xml:space="preserve" font-family="Lato" font-size="100" font-style="italic" font-weight="bold" style="stroke: none; stroke-width: 1; stroke-dasharray: none; stroke-linecap: butt; stroke-dashoffset: 0; stroke-linejoin: miter; stroke-miterlimit: 4; is-custom-font: none; font-file-url: none; fill: rgb(0,0,0); fill-rule: nonzero; opacity: 1; white-space: pre;" d="M256.10 32.21L256.10 32.21Q249.45 32.21 245.85 28.44Q242.25 24.66 242.25 18.01L242.25 18.01L242.25-10.64L237.05-10.64Q236.05-10.64 235.33-11.29Q234.60-11.94 234.60-13.24L234.60-13.24L234.60-18.14L242.85-19.49L245.45-33.49Q245.65-34.49 246.38-35.04Q247.10-35.59 248.20-35.59L248.20-35.59L254.60-35.59L254.60-19.44L268.10-19.44L268.10-10.64L254.60-10.64L254.60 17.16Q254.60 19.56 255.80 20.91Q257 22.26 259 22.26L259 22.26Q260.15 22.26 260.93 21.99Q261.70 21.71 262.27 21.41Q262.85 21.11 263.30 20.84Q263.75 20.56 264.20 20.56L264.20 20.56Q264.75 20.56 265.10 20.84Q265.45 21.11 265.85 21.66L265.85 21.66L269.55 27.66Q266.85 29.91 263.35 31.06Q259.85 32.21 256.10 32.21Z"/></g>
<g transform="matrix(1 0 0 1 445.3551 230.7705)" style="" id="796319">
		
<path xml:space="preserve" font-family="Lato" font-size="100" font-style="italic" font-weight="bold" style="stroke: none; stroke-width: 1; stroke-dasharray: none; stroke-linecap: butt; stroke-dashoffset: 0; stroke-linejoin: miter; stroke-miterlimit: 4; is-custom-font: none; font-file-url: none; fill: rgb(0,0,0); fill-rule: nonzero; opacity: 1; white-space: pre;" d="M-242.90-40.89L-242.90 31.41L-256.40 31.41L-256.40-40.89L-242.90-40.89Z"/><path xml:space="preserve" font-family="Lato" font-size="100" font-style="italic" font-weight="bold" style="stroke: none; stroke-width: 1; stroke-dasharray: none; stroke-linecap: butt; stroke-dashoffset: 0; stroke-linejoin: miter; stroke-miterlimit: 4; is-custom-font: none; font-file-url: none; fill: rgb(0,0,0); fill-rule: nonzero; opacity: 1; white-space: pre;" d="M-169.80 31.41L-182.15 31.41L-182.15-19.89L-174.60-19.89Q-172.20-19.89-171.45-17.64L-171.45-17.64L-170.65-13.84Q-169.30-15.34-167.82-16.59Q-166.35-17.84-164.68-18.74Q-163-19.64-161.07-20.16Q-159.15-20.69-156.85-20.69L-156.85-20.69Q-152-20.69-148.88-18.06Q-145.75-15.44-144.20-11.09L-144.20-11.09Q-143-13.64-141.20-15.46Q-139.40-17.29-137.25-18.44Q-135.10-19.59-132.68-20.14Q-130.25-20.69-127.80-20.69L-127.80-20.69Q-123.55-20.69-120.25-19.39Q-116.95-18.09-114.70-15.59Q-112.45-13.09-111.27-9.49Q-110.10-5.89-110.10-1.24L-110.10-1.24L-110.10 31.41L-122.45 31.41L-122.45-1.24Q-122.45-6.14-124.60-8.61Q-126.75-11.09-130.90-11.09L-130.90-11.09Q-132.80-11.09-134.43-10.44Q-136.05-9.79-137.28-8.56Q-138.50-7.34-139.20-5.49Q-139.90-3.64-139.90-1.24L-139.90-1.24L-139.90 31.41L-152.30 31.41L-152.30-1.24Q-152.30-6.39-154.38-8.74Q-156.45-11.09-160.50-11.09L-160.50-11.09Q-163.15-11.09-165.47-9.76Q-167.80-8.44-169.80-6.14L-169.80-6.14L-169.80 31.41Z"/><path xml:space="preserve" font-family="Lato" font-size="100" font-style="italic" font-weight="bold" style="stroke: none; stroke-width: 1; stroke-dasharray: none; stroke-linecap: butt; stroke-dashoffset: 0; stroke-linejoin: miter; stroke-miterlimit: 4; is-custom-font: none; font-file-url: none; fill: rgb(0,0,0); fill-rule: nonzero; opacity: 1; white-space: pre;" d="M-41.80 48.16L-54.15 48.16L-54.15-19.89L-46.60-19.89Q-45.40-19.89-44.55-19.34Q-43.70-18.79-43.45-17.64L-43.45-17.64L-42.45-12.89Q-39.35-16.44-35.33-18.64Q-31.30-20.84-25.90-20.84L-25.90-20.84Q-21.70-20.84-18.22-19.09Q-14.75-17.34-12.22-14.01Q-9.70-10.69-8.32-5.81Q-6.95-0.94-6.95 5.36L-6.95 5.36Q-6.95 11.11-8.50 16.01Q-10.05 20.91-12.92 24.51Q-15.80 28.11-19.88 30.14Q-23.95 32.16-29 32.16L-29 32.16Q-33.35 32.16-36.38 30.84Q-39.40 29.51-41.80 27.16L-41.80 27.16L-41.80 48.16ZM-30.15-11.09L-30.15-11.09Q-34-11.09-36.72-9.46Q-39.45-7.84-41.80-4.89L-41.80-4.89L-41.80 18.11Q-39.70 20.71-37.22 21.74Q-34.75 22.76-31.90 22.76L-31.90 22.76Q-29.10 22.76-26.82 21.71Q-24.55 20.66-22.98 18.51Q-21.40 16.36-20.55 13.09Q-19.70 9.81-19.70 5.36L-19.70 5.36Q-19.70 0.86-20.42-2.26Q-21.15-5.39-22.50-7.34Q-23.85-9.29-25.77-10.19Q-27.70-11.09-30.15-11.09Z"/><path xml:space="preserve" font-family="Lato" font-size="100" font-style="italic" font-weight="bold" style="stroke: none; stroke-width: 1; stroke-dasharray: none; stroke-linecap: butt; stroke-dashoffset: 0; stroke-linejoin: miter; stroke-miterlimit: 4; is-custom-font: none; font-file-url: none; fill: rgb(0,0,0); fill-rule: nonzero; opacity: 1; white-space: pre;" d="M68.85-20.69L68.85-20.69Q74.60-20.69 79.28-18.84Q83.95-16.99 87.25-13.59Q90.55-10.19 92.35-5.29Q94.15-0.39 94.15 5.66L94.15 5.66Q94.15 11.76 92.35 16.66Q90.55 21.56 87.25 25.01Q83.95 28.46 79.28 30.31Q74.60 32.16 68.85 32.16L68.85 32.16Q63.10 32.16 58.40 30.31Q53.70 28.46 50.38 25.01Q47.05 21.56 45.23 16.66Q43.40 11.76 43.40 5.66L43.40 5.66Q43.40-0.39 45.23-5.29Q47.05-10.19 50.38-13.59Q53.70-16.99 58.40-18.84Q63.10-20.69 68.85-20.69ZM68.85 22.66L68.85 22.66Q75.25 22.66 78.33 18.36Q81.40 14.06 81.40 5.76L81.40 5.76Q81.40-2.54 78.33-6.89Q75.25-11.24 68.85-11.24L68.85-11.24Q62.35-11.24 59.25-6.86Q56.15-2.49 56.15 5.76L56.15 5.76Q56.15 14.01 59.25 18.34Q62.35 22.66 68.85 22.66Z"/><path xml:space="preserve" font-family="Lato" font-size="100" font-style="italic" font-weight="bold" style="stroke: none; stroke-width: 1; stroke-dasharray: none; stroke-linecap: butt; stroke-dashoffset: 0; stroke-linejoin: miter; stroke-miterlimit: 4; is-custom-font: none; font-file-url: none; fill: rgb(0,0,0); fill-rule: nonzero; opacity: 1; white-space: pre;" d="M160.80 31.41L148.45 31.41L148.45-19.89L155.70-19.89Q157.60-19.89 158.35-19.19Q159.10-18.49 159.35-16.79L159.35-16.79L160.10-10.59Q162.85-15.34 166.55-18.09Q170.25-20.84 174.85-20.84L174.85-20.84Q178.65-20.84 181.15-19.09L181.15-19.09L179.55-9.84Q179.40-8.94 178.90-8.56Q178.40-8.19 177.55-8.19L177.55-8.19Q176.80-8.19 175.50-8.54Q174.20-8.89 172.05-8.89L172.05-8.89Q168.20-8.89 165.45-6.76Q162.70-4.64 160.80-0.54L160.80-0.54L160.80 31.41Z"/><path xml:space="preserve" font-family="Lato" font-size="100" font-style="italic" font-weight="bold" style="stroke: none; stroke-width: 1; stroke-dasharray: none; stroke-linecap: butt; stroke-dashoffset: 0; stroke-linejoin: miter; stroke-miterlimit: 4; is-custom-font: none; font-file-url: none; fill: rgb(0,0,0); fill-rule: nonzero; opacity: 1; white-space: pre;" d="M251.50 32.21L251.50 32.21Q244.85 32.21 241.25 28.44Q237.65 24.66 237.65 18.01L237.65 18.01L237.65-10.64L232.45-10.64Q231.45-10.64 230.73-11.29Q230-11.94 230-13.24L230-13.24L230-18.14L238.25-19.49L240.85-33.49Q241.05-34.49 241.78-35.04Q242.50-35.59 243.60-35.59L243.60-35.59L250-35.59L250-19.44L263.50-19.44L263.50-10.64L250-10.64L250 17.16Q250 19.56 251.20 20.91Q252.40 22.26 254.40 22.26L254.40 22.26Q255.55 22.26 256.32 21.99Q257.10 21.71 257.68 21.41Q258.25 21.11 258.70 20.84Q259.15 20.56 259.60 20.56L259.60 20.56Q260.15 20.56 260.50 20.84Q260.85 21.11 261.25 21.66L261.25 21.66L264.95 27.66Q262.25 29.91 258.75 31.06Q255.25 32.21 251.50 32.21Z"/></g>
<g transform="matrix(1 0 0 1 500 449.037)" style="" id="997990">
		
</g>
</svg>